<svg width="50" height="50" viewBox="0 0 50 50" fill="none" xmlns="http://www.w3.org/2000/svg">
<path d="M25 46.6741C13.1155 46.6741 3.44824 37.0069 3.44824 25.1224C3.44824 13.2379 13.1155 3.57068 25 3.57068C36.8845 3.57068 46.5517 13.2379 46.5517 25.1224C46.5517 37.0069 36.8845 46.6741 25 46.6741ZM25 7.01895C15.0172 7.01895 6.89652 15.1396 6.89652 25.1224C6.89652 35.1052 15.0172 43.2259 25 43.2259C34.9827 43.2259 43.1034 35.1034 43.1034 25.1224C43.1034 15.1414 34.9827 7.01895 25 7.01895Z" fill="#006699"/>
<path d="M25 37.1914C24.5427 37.1914 24.1042 37.0097 23.7809 36.6864C23.4575 36.3631 23.2759 35.9245 23.2759 35.4673V14.7776C23.2759 14.3203 23.4575 13.8818 23.7809 13.5585C24.1042 13.2351 24.5427 13.0535 25 13.0535C25.4573 13.0535 25.8958 13.2351 26.2192 13.5585C26.5425 13.8818 26.7242 14.3203 26.7242 14.7776V35.4673C26.7242 35.9245 26.5425 36.3631 26.2192 36.6864C25.8958 37.0097 25.4573 37.1914 25 37.1914Z" fill="#006699"/>
<path d="M35.3449 26.8466H14.6553C14.198 26.8466 13.7595 26.6649 13.4361 26.3416C13.1128 26.0183 12.9312 25.5797 12.9312 25.1225C12.9312 24.6652 13.1128 24.2266 13.4361 23.9033C13.7595 23.58 14.198 23.3983 14.6553 23.3983H35.3449C35.8022 23.3983 36.2408 23.58 36.5641 23.9033C36.8874 24.2266 37.0691 24.6652 37.0691 25.1225C37.0691 25.5797 36.8874 26.0183 36.5641 26.3416C36.2408 26.6649 35.8022 26.8466 35.3449 26.8466Z" fill="#006699"/>
</svg>
