<svg width="32" height="32" viewBox="0 0 32 32" fill="none" xmlns="http://www.w3.org/2000/svg">
<path d="M29 13H3C2.73478 13 2.48043 12.8946 2.29289 12.7071C2.10536 12.5196 2 12.2652 2 12C2 11.7348 2.10536 11.4804 2.29289 11.2929C2.48043 11.1054 2.73478 11 3 11H29C29.2652 11 29.5196 11.1054 29.7071 11.2929C29.8946 11.4804 30 11.7348 30 12C30 12.2652 29.8946 12.5196 29.7071 12.7071C29.5196 12.8946 29.2652 13 29 13Z" fill="#0099CC"/>
<path d="M27 5H24V4C24 3.73478 23.8946 3.48043 23.7071 3.29289C23.5196 3.10536 23.2652 3 23 3C22.7348 3 22.4804 3.10536 22.2929 3.29289C22.1054 3.48043 22 3.73478 22 4V5H10V4C10 3.73478 9.89464 3.48043 9.70711 3.29289C9.51957 3.10536 9.26522 3 9 3C8.73478 3 8.48043 3.10536 8.29289 3.29289C8.10536 3.48043 8 3.73478 8 4V5H5C4.20435 5 3.44129 5.31607 2.87868 5.87868C2.31607 6.44129 2 7.20435 2 8V26C2 26.7956 2.31607 27.5587 2.87868 28.1213C3.44129 28.6839 4.20435 29 5 29H27C27.7956 29 28.5587 28.6839 29.1213 28.1213C29.6839 27.5587 30 26.7956 30 26V8C30 7.20435 29.6839 6.44129 29.1213 5.87868C28.5587 5.31607 27.7956 5 27 5ZM28 26C28 26.2652 27.8946 26.5196 27.7071 26.7071C27.5196 26.8946 27.2652 27 27 27H5C4.73478 27 4.48043 26.8946 4.29289 26.7071C4.10536 26.5196 4 26.2652 4 26V8C4 7.73478 4.10536 7.48043 4.29289 7.29289C4.48043 7.10536 4.73478 7 5 7H8V8C8 8.26522 8.10536 8.51957 8.29289 8.70711C8.48043 8.89464 8.73478 9 9 9C9.26522 9 9.51957 8.89464 9.70711 8.70711C9.89464 8.51957 10 8.26522 10 8V7H22V8C22 8.26522 22.1054 8.51957 22.2929 8.70711C22.4804 8.89464 22.7348 9 23 9C23.2652 9 23.5196 8.89464 23.7071 8.70711C23.8946 8.51957 24 8.26522 24 8V7H27C27.2652 7 27.5196 7.10536 27.7071 7.29289C27.8946 7.48043 28 7.73478 28 8V26Z" fill="#171938"/>
</svg>
