<svg width="50" height="50" viewBox="0 0 50 50" fill="none" xmlns="http://www.w3.org/2000/svg">
<path fill-rule="evenodd" clip-rule="evenodd" d="M14.5835 9.37498C14.5835 7.99371 15.1322 6.669 16.1088 5.69222C17.0854 4.71544 18.41 4.16659 19.7913 4.16638H36.4585C37.8398 4.16659 39.1644 4.71544 40.141 5.69222C41.1177 6.669 41.6663 7.99371 41.6663 9.37498V41.6672C41.6663 42.7722 41.2273 43.8319 40.446 44.6133C39.6646 45.3946 38.6049 45.8336 37.4999 45.8336C36.3949 45.8336 35.3352 45.3946 34.5538 44.6133C33.7725 43.8319 33.3335 42.7722 33.3335 41.6672V38.5422H35.4163V41.6672C35.4163 42.2198 35.6358 42.7497 36.0266 43.1405C36.4173 43.5312 36.9473 43.7508 37.4999 43.7508C38.0525 43.7508 38.5825 43.5312 38.9732 43.1405C39.364 42.7497 39.5835 42.2198 39.5835 41.6672V9.37498C39.5835 8.54617 39.2543 7.75132 38.6682 7.16527C38.0822 6.57922 37.2873 6.24998 36.4585 6.24998H19.7913C18.9625 6.24998 18.1677 6.57922 17.5816 7.16527C16.9955 7.75132 16.6663 8.54617 16.6663 9.37498V38.5422H14.5835V9.37498Z" fill="#006699"/>
<path fill-rule="evenodd" clip-rule="evenodd" d="M8.3335 38.5414C8.3335 37.9664 8.7999 37.5 9.3749 37.5H34.3749C34.6512 37.5 34.9162 37.6098 35.1116 37.8051C35.3069 38.0005 35.4167 38.2655 35.4167 38.5418C35.4167 38.8181 35.3069 39.0831 35.1116 39.2785C34.9162 39.4738 34.6512 39.5836 34.3749 39.5836H10.4163V40.625C10.4163 41.4538 10.7455 42.2487 11.3316 42.8347C11.9177 43.4208 12.7125 43.75 13.5413 43.75H37.4999V45.8336H13.5413C12.16 45.8334 10.8354 45.2845 9.85878 44.3078C8.88215 43.331 8.3335 42.0063 8.3335 40.625V38.5414Z" fill="#006699"/>
<path fill-rule="evenodd" clip-rule="evenodd" d="M21.875 13.5414C21.875 12.9664 22.3414 12.5 22.9164 12.5H33.3336C33.6099 12.5 33.8749 12.6098 34.0703 12.8051C34.2656 13.0005 34.3754 13.2655 34.3754 13.5418C34.3754 13.8181 34.2656 14.0831 34.0703 14.2785C33.8749 14.4738 33.6099 14.5836 33.3336 14.5836H22.9164C22.7796 14.5836 22.6441 14.5566 22.5177 14.5042C22.3913 14.4519 22.2765 14.3751 22.1797 14.2783C22.083 14.1815 22.0063 14.0666 21.954 13.9402C21.9018 13.8137 21.8749 13.6782 21.875 13.5414ZM21.875 21.875C21.875 21.3 22.3414 20.8328 22.9164 20.8328H33.3336C33.6099 20.8328 33.8749 20.9426 34.0703 21.1379C34.2656 21.3333 34.3754 21.5983 34.3754 21.8746C34.3754 22.1509 34.2656 22.4159 34.0703 22.6113C33.8749 22.8066 33.6099 22.9164 33.3336 22.9164H22.9164C22.6402 22.9164 22.3753 22.8067 22.18 22.6114C21.9847 22.4161 21.875 22.1512 21.875 21.875ZM21.875 30.2086C21.875 29.6336 22.3414 29.1664 22.9164 29.1664H33.3336C33.6099 29.1664 33.8749 29.2762 34.0703 29.4715C34.2656 29.6669 34.3754 29.9319 34.3754 30.2082C34.3754 30.4845 34.2656 30.7495 34.0703 30.9449C33.8749 31.1402 33.6099 31.25 33.3336 31.25H22.9164C22.6402 31.25 22.3753 31.1403 22.18 30.945C21.9847 30.7497 21.875 30.4848 21.875 30.2086Z" fill="#0099CC"/>
</svg>
