<svg width="32" height="32" viewBox="0 0 32 32" fill="none" xmlns="http://www.w3.org/2000/svg">
<path d="M15.9999 8H26.6666C27.4666 8 27.9999 7.46666 27.9999 6.66666C27.9999 5.86666 27.4666 5.33333 26.6666 5.33333H15.9999C15.1999 5.33333 14.6666 5.86666 14.6666 6.66666C14.6666 7.46666 15.1999 8 15.9999 8ZM26.6666 14.6667H15.9999C15.1999 14.6667 14.6666 15.2 14.6666 16C14.6666 16.8 15.1999 17.3333 15.9999 17.3333H26.6666C27.4666 17.3333 27.9999 16.8 27.9999 16C27.9999 15.2 27.4666 14.6667 26.6666 14.6667ZM26.6666 24H15.9999C15.1999 24 14.6666 24.5333 14.6666 25.3333C14.6666 26.1333 15.1999 26.6667 15.9999 26.6667H26.6666C27.4666 26.6667 27.9999 26.1333 27.9999 25.3333C27.9999 24.5333 27.4666 24 26.6666 24ZM9.5999 4.26666L7.33324 7.6L6.66657 6.93333C6.13324 6.4 5.33324 6.4 4.7999 6.93333C4.26657 7.46666 4.26657 8.26666 4.7999 8.8L6.53324 10.6667C6.7999 10.9333 7.06657 11.0667 7.46657 11.0667H7.5999C7.9999 11.0667 8.3999 10.8 8.53324 10.5333L11.7332 5.73333C12.1332 5.06666 11.9999 4.26666 11.4666 3.86666C10.7999 3.46666 9.9999 3.6 9.5999 4.26666ZM9.5999 13.6L7.33324 16.9333L6.66657 16.2667C6.13324 15.7333 5.33324 15.7333 4.7999 16.2667C4.26657 16.8 4.26657 17.6 4.7999 18.1333L6.53324 20C6.7999 20.2667 7.06657 20.4 7.46657 20.4H7.5999C7.9999 20.4 8.3999 20.1333 8.53324 19.8667L11.7332 15.0667C12.1332 14.4 11.9999 13.6 11.3332 13.2C10.7999 12.8 9.9999 12.9333 9.5999 13.6ZM9.5999 22.9333L7.33324 26.2667L6.66657 25.6C6.13324 25.0667 5.33324 25.0667 4.7999 25.6C4.26657 26.1333 4.26657 26.9333 4.7999 27.4667L6.53324 29.3333C6.7999 29.6 7.06657 29.7333 7.46657 29.7333H7.5999C7.9999 29.7333 8.3999 29.4667 8.53324 29.2L11.7332 24.4C12.1332 23.7333 11.9999 22.9333 11.3332 22.5333C10.7999 22.1333 9.9999 22.2667 9.5999 22.9333Z" fill="#0099CC"/>
</svg>
