<svg width="50" height="50" viewBox="0 0 50 50" fill="none" xmlns="http://www.w3.org/2000/svg">
<g clip-path="url(#clip0_14_300)">
<path d="M11.3281 26.5625C15.4271 26.5625 18.75 23.2396 18.75 19.1406C18.75 15.0416 15.4271 11.7188 11.3281 11.7188C7.22914 11.7188 3.90625 15.0416 3.90625 19.1406C3.90625 23.2396 7.22914 26.5625 11.3281 26.5625Z" stroke="#006699" stroke-width="4" stroke-miterlimit="10"/>
<path d="M0.78112 38.2812C0.754209 36.7689 1.02549 35.2661 1.57948 33.8587C2.13346 32.4512 2.95929 31.1667 4.0098 30.0785C5.06031 28.9902 6.31492 28.1196 7.70196 27.5163C9.089 26.9131 10.5813 26.5889 12.0936 26.5625M22.6561 38.2812C22.683 36.7689 22.4117 35.2661 21.8578 33.8587C21.3038 32.4512 20.4779 31.1667 19.4274 30.0785C18.3769 28.9902 17.1223 28.1196 15.7353 27.5163C14.3482 26.9131 12.8559 26.5889 11.3436 26.5625" stroke="#006699" stroke-width="4" stroke-miterlimit="10"/>
<path d="M27.3438 11.7188H49.2188" stroke="#006699" stroke-width="4" stroke-miterlimit="10"/>
<path d="M27.3438 24.2188H49.2188" stroke="#006699" stroke-width="4" stroke-miterlimit="10"/>
<path d="M27.3438 36.7188H49.2188" stroke="#006699" stroke-width="4" stroke-miterlimit="10"/>
</g>
<defs>
<clipPath id="clip0_14_300">
<rect width="50" height="50" fill="white"/>
</clipPath>
</defs>
</svg>
