<svg width="35" height="35" viewBox="0 0 35 35" fill="none" xmlns="http://www.w3.org/2000/svg">
<path d="M15.3125 18.9583H5.10417C4.66667 18.9583 4.375 19.25 4.375 19.6875V29.8958C4.375 30.3333 4.66667 30.625 5.10417 30.625H15.3125C15.75 30.625 16.0417 30.3333 16.0417 29.8958V19.6875C16.0417 19.25 15.75 18.9583 15.3125 18.9583ZM14.5833 29.1667H5.83333V20.4167H14.5833V29.1667ZM15.3125 4.375H5.10417C4.66667 4.375 4.375 4.66667 4.375 5.10417V15.3125C4.375 15.75 4.66667 16.0417 5.10417 16.0417H15.3125C15.75 16.0417 16.0417 15.75 16.0417 15.3125V5.10417C16.0417 4.66667 15.75 4.375 15.3125 4.375ZM14.5833 14.5833H5.83333V5.83333H14.5833V14.5833ZM29.8958 4.375H19.6875C19.25 4.375 18.9583 4.66667 18.9583 5.10417V15.3125C18.9583 15.75 19.25 16.0417 19.6875 16.0417H29.8958C30.3333 16.0417 30.625 15.75 30.625 15.3125V5.10417C30.625 4.66667 30.3333 4.375 29.8958 4.375ZM29.1667 14.5833H20.4167V5.83333H29.1667V14.5833ZM29.8958 24.0625H25.5208V19.6875C25.5208 19.25 25.2292 18.9583 24.7917 18.9583C24.3542 18.9583 24.0625 19.25 24.0625 19.6875V24.0625H19.6875C19.25 24.0625 18.9583 24.3542 18.9583 24.7917C18.9583 25.2292 19.25 25.5208 19.6875 25.5208H24.0625V29.8958C24.0625 30.3333 24.3542 30.625 24.7917 30.625C25.2292 30.625 25.5208 30.3333 25.5208 29.8958V25.5208H29.8958C30.3333 25.5208 30.625 25.2292 30.625 24.7917C30.625 24.3542 30.3333 24.0625 29.8958 24.0625Z" fill="#0099CC"/>
</svg>
