<svg width="50" height="50" viewBox="0 0 50 50" fill="none" xmlns="http://www.w3.org/2000/svg">
<path fill-rule="evenodd" clip-rule="evenodd" d="M6.24994 3.12494C4.53642 3.12494 3.12498 4.53638 3.12498 6.2499L3.12081 33.3371C3.12081 34.7277 5.20621 34.7277 5.20621 33.3371L5.20829 6.2499C5.20829 5.65512 5.65516 5.20825 6.24994 5.20825H35.4162C36.011 5.20825 36.4579 5.65512 36.4579 6.2499V24.9997C36.4371 26.408 38.562 26.408 38.5412 24.9997V6.2499C38.5412 4.53638 37.1298 3.12494 35.4162 3.12494H6.24994ZM12.4999 11.4582C12.2236 11.4582 11.9587 11.5679 11.7633 11.7633C11.568 11.9586 11.4582 12.2236 11.4582 12.4998C11.4582 12.7761 11.568 13.041 11.7633 13.2364C11.9587 13.4317 12.2236 13.5415 12.4999 13.5415C12.7761 13.5415 13.0411 13.4317 13.2364 13.2364C13.4318 13.041 13.5415 12.7761 13.5415 12.4998C13.5415 12.2236 13.4318 11.9586 13.2364 11.7633C13.0411 11.5679 12.7761 11.4582 12.4999 11.4582ZM16.5623 11.4602C15.205 11.554 15.3019 13.579 16.6623 13.5436H29.1663C30.5257 13.5144 30.5257 11.4894 29.1663 11.4602H16.6623C16.629 11.4587 16.5956 11.4587 16.5623 11.4602ZM12.4999 17.7081C12.2236 17.7081 11.9587 17.8178 11.7633 18.0132C11.568 18.2085 11.4582 18.4735 11.4582 18.7497C11.4582 19.026 11.568 19.291 11.7633 19.4863C11.9587 19.6817 12.2236 19.7914 12.4999 19.7914C12.7761 19.7914 13.0411 19.6817 13.2364 19.4863C13.4318 19.291 13.5415 19.026 13.5415 18.7497C13.5415 18.4735 13.4318 18.2085 13.2364 18.0132C13.0411 17.8178 12.7761 17.7081 12.4999 17.7081ZM29.2809 17.7081C29.2424 17.7081 29.2038 17.7081 29.1663 17.7123H16.6623C16.629 17.7107 16.5956 17.7107 16.5623 17.7123C15.2852 17.8706 15.3748 19.7518 16.6623 19.7872H29.1663C30.5965 19.9133 30.7163 17.7383 29.2809 17.7081ZM16.6623 23.9559C15.303 23.9851 15.303 26.0101 16.6623 26.0392H29.1663C30.5851 26.0705 30.5851 23.9247 29.1663 23.9559H16.6623ZM12.4999 23.958C12.2236 23.958 11.9587 24.0678 11.7633 24.2631C11.568 24.4585 11.4582 24.7234 11.4582 24.9997C11.4582 25.2759 11.568 25.5409 11.7633 25.7362C11.9587 25.9316 12.2236 26.0413 12.4999 26.0413C12.7761 26.0413 13.0411 25.9316 13.2364 25.7362C13.4318 25.5409 13.5415 25.2759 13.5415 24.9997C13.5415 24.7234 13.4318 24.4585 13.2364 24.2631C13.0411 24.0678 12.7761 23.958 12.4999 23.958ZM12.4999 30.2079C12.2236 30.2079 11.9587 30.3177 11.7633 30.513C11.568 30.7084 11.4582 30.9733 11.4582 31.2496C11.4582 31.5258 11.568 31.7908 11.7633 31.9861C11.9587 32.1815 12.2236 32.2912 12.4999 32.2912C12.7761 32.2912 13.0411 32.1815 13.2364 31.9861C13.4318 31.7908 13.5415 31.5258 13.5415 31.2496C13.5415 30.9733 13.4318 30.7084 13.2364 30.513C13.0411 30.3177 12.7761 30.2079 12.4999 30.2079ZM16.6623 30.2079C15.2436 30.1767 15.2436 32.3225 16.6623 32.2912H27.0809C28.4997 32.3225 28.4997 30.1767 27.0809 30.2079H16.6623ZM12.4999 36.4579C12.2236 36.4579 11.9587 36.5676 11.7633 36.7629C11.568 36.9583 11.4582 37.2232 11.4582 37.4995C11.4582 37.7758 11.568 38.0407 11.7633 38.2361C11.9587 38.4314 12.2236 38.5412 12.4999 38.5412C12.7761 38.5412 13.0411 38.4314 13.2364 38.2361C13.4318 38.0407 13.5415 37.7758 13.5415 37.4995C13.5415 37.2232 13.4318 36.9583 13.2364 36.7629C13.0411 36.5676 12.7761 36.4579 12.4999 36.4579ZM16.5623 36.4579C15.1727 36.5245 15.2717 38.6099 16.6623 38.5432H24.9976C26.3882 38.5432 26.3882 36.4579 24.9976 36.4579H16.6623C16.629 36.4563 16.5956 36.4563 16.5623 36.4579ZM4.15205 37.4808C4.01437 37.4821 3.87832 37.5107 3.75177 37.565C3.62522 37.6193 3.51069 37.6981 3.41479 37.7969C3.31889 37.8957 3.24353 38.0125 3.19307 38.1406C3.14261 38.2687 3.11805 38.4056 3.12081 38.5432L3.12498 43.7494C3.12498 45.4629 4.53642 46.8744 6.24994 46.8744H27.083C28.4913 46.8952 28.4913 44.7702 27.083 44.7911H6.24994C5.65516 44.7911 5.20829 44.3442 5.20829 43.7494L5.20621 38.5432C5.20901 38.4036 5.18372 38.2649 5.13184 38.1353C5.07996 38.0057 5.00255 37.8878 4.90422 37.7887C4.80588 37.6896 4.68862 37.6112 4.5594 37.5583C4.43019 37.5054 4.29166 37.479 4.15205 37.4808ZM37.5016 28.1225C32.3361 28.1225 28.1288 32.3319 28.1288 37.4974C28.1288 42.663 32.3371 46.8786 37.5016 46.8786C42.6672 46.8786 46.8744 42.663 46.8744 37.4974C46.8744 32.3319 42.6661 28.1225 37.5016 28.1225ZM37.5016 30.2079C38.4595 30.2057 39.4084 30.3928 40.2938 30.7583C41.1792 31.1239 41.9836 31.6607 42.661 32.3381C43.3383 33.0154 43.8752 33.8199 44.2407 34.7053C44.6063 35.5906 44.7933 36.5395 44.7911 37.4974C44.7935 38.4556 44.6065 39.4049 44.2411 40.2907C43.8757 41.1765 43.3389 41.9814 42.6617 42.6593C41.9844 43.3371 41.1799 43.8746 40.2944 44.2408C39.4089 44.607 38.4599 44.7947 37.5016 44.7932C36.5434 44.7947 35.5943 44.607 34.7088 44.2408C33.8233 43.8746 33.0189 43.3371 32.3416 42.6593C31.6643 41.9814 31.1276 41.1765 30.7621 40.2907C30.3967 39.4049 30.2098 38.4556 30.2121 37.4974C30.2099 36.5395 30.397 35.5906 30.7625 34.7053C31.1281 33.8199 31.665 33.0154 32.3423 32.3381C33.0196 31.6607 33.8241 31.1239 34.7095 30.7583C35.5949 30.3928 36.5437 30.2057 37.5016 30.2079ZM40.7912 34.2443C40.5214 34.2531 40.2656 34.3663 40.0776 34.56L36.3944 38.2422L34.9256 36.7672C34.829 36.669 34.714 36.5909 34.5871 36.5374C34.4602 36.4838 34.3239 36.4559 34.1862 36.4553C34.0484 36.4547 33.9119 36.4813 33.7845 36.5337C33.6572 36.5861 33.5414 36.6632 33.4439 36.7605C33.3465 36.8578 33.2692 36.9735 33.2167 37.1008C33.1641 37.2281 33.1373 37.3646 33.1377 37.5023C33.1381 37.6401 33.1658 37.7763 33.2192 37.9033C33.2725 38.0303 33.3505 38.1455 33.4486 38.2422L35.6569 40.4495C35.7536 40.5463 35.8685 40.6231 35.9949 40.6756C36.1214 40.728 36.2569 40.755 36.3938 40.755C36.5307 40.755 36.6663 40.728 36.7927 40.6756C36.9192 40.6231 37.0341 40.5463 37.1308 40.4495L41.5547 36.0349C41.7066 35.8884 41.8104 35.6992 41.8524 35.4923C41.8944 35.2855 41.8725 35.0708 41.7897 34.8766C41.7069 34.6825 41.5671 34.5181 41.3888 34.4051C41.2105 34.2922 41.0021 34.2362 40.7912 34.2443Z" fill="#0099CC"/>
</svg>
