<svg width="40" height="40" viewBox="0 0 40 40" fill="none" xmlns="http://www.w3.org/2000/svg">
<path d="M33.3838 19.1163L27.1338 12.8663C26.898 12.6386 26.5822 12.5126 26.2545 12.5154C25.9268 12.5183 25.6132 12.6497 25.3815 12.8815C25.1497 13.1133 25.0183 13.4268 25.0154 13.7545C25.0126 14.0823 25.1386 14.398 25.3662 14.6338L29.4825 18.75H15C14.6685 18.75 14.3505 18.8817 14.1161 19.1161C13.8817 19.3506 13.75 19.6685 13.75 20C13.75 20.3315 13.8817 20.6495 14.1161 20.8839C14.3505 21.1183 14.6685 21.25 15 21.25H29.4825L25.3662 25.3663C25.2469 25.4816 25.1516 25.6195 25.0861 25.772C25.0206 25.9245 24.9861 26.0885 24.9847 26.2545C24.9832 26.4205 25.0149 26.5851 25.0777 26.7387C25.1406 26.8923 25.2334 27.0319 25.3508 27.1493C25.4681 27.2666 25.6077 27.3594 25.7613 27.4223C25.9149 27.4851 26.0795 27.5168 26.2455 27.5153C26.4115 27.5139 26.5755 27.4794 26.728 27.4139C26.8805 27.3484 27.0184 27.2532 27.1338 27.1338L33.3838 20.8838C33.6181 20.6494 33.7497 20.3315 33.7497 20C33.7497 19.6686 33.6181 19.3507 33.3838 19.1163Z" fill="#0099CC"/>
<path d="M12.5 31.25H8.75V8.75H12.5C12.8315 8.75 13.1495 8.6183 13.3839 8.38388C13.6183 8.14946 13.75 7.83152 13.75 7.5C13.75 7.16848 13.6183 6.85054 13.3839 6.61612C13.1495 6.3817 12.8315 6.25 12.5 6.25H7.5C7.16848 6.25 6.85054 6.3817 6.61612 6.61612C6.3817 6.85054 6.25 7.16848 6.25 7.5V32.5C6.25 32.8315 6.3817 33.1495 6.61612 33.3839C6.85054 33.6183 7.16848 33.75 7.5 33.75H12.5C12.8315 33.75 13.1495 33.6183 13.3839 33.3839C13.6183 33.1495 13.75 32.8315 13.75 32.5C13.75 32.1685 13.6183 31.8505 13.3839 31.6161C13.1495 31.3817 12.8315 31.25 12.5 31.25Z" fill="#0099CC"/>
</svg>
