<svg width="50" height="50" viewBox="0 0 50 50" fill="none" xmlns="http://www.w3.org/2000/svg">
<g clip-path="url(#clip0_92_3)">
<path d="M43.4375 3.125C43.0469 2.89062 42.5781 2.96875 42.3438 3.35938C42.1094 3.75 42.1875 4.21875 42.5781 4.45312C45.7812 6.5625 47.6562 10.2344 47.6562 14.0625C47.6562 20.5469 42.4219 25.7812 35.9375 25.7812C29.4531 25.7812 24.2188 20.5469 24.2188 14.0625C24.2188 7.57812 29.4531 2.34375 35.9375 2.34375C36.4062 2.34375 36.7188 2.03125 36.7188 1.5625C36.7188 1.09375 36.4062 0.78125 35.9375 0.78125C28.5938 0.78125 22.6562 6.71875 22.6562 14.0625C22.6562 21.4062 28.5938 27.3438 35.9375 27.3438C43.2812 27.3438 49.2188 21.4062 49.2188 14.0625C49.2188 9.6875 47.0312 5.625 43.4375 3.125Z" fill="#0099CC"/>
<path d="M39.0623 2.73439C39.3748 2.81252 39.7654 2.96877 40.0779 3.04689C41.1716 3.35939 41.4841 2.03127 40.6248 1.64064C40.2341 1.48439 39.8435 1.32814 39.4529 1.25002C39.0623 1.17189 38.5935 1.40627 38.5154 1.79689C38.3591 2.18752 38.6716 2.65627 39.0623 2.73439ZM20.4685 45L19.6091 46.4844C18.9841 47.5781 17.4998 48.0469 16.406 47.3438C15.8591 47.0313 14.531 46.0938 15.5466 44.1406L26.2498 26.0156C26.4841 25.625 26.3279 25.1563 25.9373 24.9219C25.5466 24.6875 25.0779 24.8438 24.8435 25.2344L14.1404 43.3594C12.7341 46.0938 14.531 48.2813 15.5466 48.6719C16.1716 48.9844 18.906 50 20.8591 47.1875L21.7185 45.7031C22.4998 44.4531 20.9373 43.9844 20.4685 45Z" fill="#0099CC"/>
<path d="M31.4062 28.0469C31.0156 27.8125 30.5469 27.9688 30.3125 28.3594L22.3438 41.9531C21.4844 43.2031 23.2031 43.9062 23.75 42.7344L31.7969 29.0625C31.9531 28.75 31.7969 28.2031 31.4062 28.0469ZM17.1875 2.34375H26.5625C27.0312 2.34375 27.3438 2.03125 27.3438 1.5625C27.3438 1.09375 27.0312 0.78125 26.5625 0.78125H17.1875C16.7188 0.78125 16.4062 1.09375 16.4062 1.5625C16.4062 2.03125 16.7188 2.34375 17.1875 2.34375ZM9.375 2.34375H14.0625C14.5312 2.34375 14.8438 2.03125 14.8438 1.5625C14.8438 1.09375 14.5312 0.78125 14.0625 0.78125H9.375C8.90625 0.78125 8.59375 1.09375 8.59375 1.5625C8.59375 2.03125 8.90625 2.34375 9.375 2.34375ZM9.375 8.59375H21.875C22.3438 8.59375 22.6562 8.28125 22.6562 7.8125C22.6562 7.34375 22.3438 7.03125 21.875 7.03125H9.375C8.90625 7.03125 8.59375 7.34375 8.59375 7.8125C8.59375 8.28125 8.90625 8.59375 9.375 8.59375ZM7.03125 7.8125C7.03125 7.34375 6.71875 7.03125 6.25 7.03125H1.5625C1.09375 7.03125 0.78125 7.34375 0.78125 7.8125C0.78125 8.28125 1.09375 8.59375 1.5625 8.59375H6.25C6.71875 8.59375 7.03125 8.28125 7.03125 7.8125ZM21.0938 14.0625C21.0938 13.5938 20.7812 13.2812 20.3125 13.2812H6.25C5.78125 13.2812 5.46875 13.5938 5.46875 14.0625C5.46875 14.5312 5.78125 14.8438 6.25 14.8438H20.3125C20.7812 14.8438 21.0938 14.5312 21.0938 14.0625ZM21.875 19.5312H17.1875C16.7188 19.5312 16.4062 19.8438 16.4062 20.3125C16.4062 20.7812 16.7188 21.0938 17.1875 21.0938H21.875C22.3438 21.0938 22.6562 20.7812 22.6562 20.3125C22.6562 19.8438 22.3438 19.5312 21.875 19.5312ZM14.8438 20.3125C14.8438 19.8438 14.5312 19.5312 14.0625 19.5312H10.9375C10.4688 19.5312 10.1562 19.8438 10.1562 20.3125C10.1562 20.7812 10.4688 21.0938 10.9375 21.0938H14.0625C14.5312 21.0938 14.8438 20.7812 14.8438 20.3125ZM44.375 19.6875C45.4688 18.0469 46.0938 16.1719 46.0938 14.0625C46.0938 13.5938 45.7812 13.2812 45.3125 13.2812C44.8438 13.2812 44.5312 13.5938 44.5312 14.0625C44.5312 15.7812 44.0625 17.4219 43.125 18.75C42.2656 20.0781 43.9062 20.4688 44.375 19.6875Z" fill="#0099CC"/>
</g>
<defs>
<clipPath id="clip0_92_3">
<rect width="50" height="50" fill="white"/>
</clipPath>
</defs>
</svg>
