<svg width="50" height="50" viewBox="0 0 50 50" fill="none" xmlns="http://www.w3.org/2000/svg">
<path d="M39.0625 25.0398V16.4062V9.375C39.0625 8.94297 38.7133 8.59375 38.2812 8.59375H35.8672C35.4938 6.38047 33.568 4.6875 31.25 4.6875C28.932 4.6875 27.0063 6.38047 26.6328 8.59375H24.9297C24.5555 6.38047 22.6305 4.6875 20.3125 4.6875C17.9945 4.6875 16.0695 6.38047 15.6953 8.59375H13.9922C13.618 6.38047 11.693 4.6875 9.375 4.6875C7.05703 4.6875 5.13203 6.38047 4.75781 8.59375H2.34375C1.9125 8.59375 1.5625 8.94297 1.5625 9.375V16.4062V42.9688C1.5625 43.4008 1.9125 43.75 2.34375 43.75H32.8672C33.2453 43.9914 33.6406 44.2086 34.0523 44.3984C35.3875 45.0039 36.8102 45.3125 38.2812 45.3125C43.8812 45.3125 48.4375 40.7562 48.4375 35.1562C48.4375 29.8203 44.2977 25.4406 39.0625 25.0398ZM31.25 6.25C32.7008 6.25 33.9148 7.24922 34.2633 8.59375H28.2344C28.5852 7.24922 29.7992 6.25 31.25 6.25ZM20.3125 6.25C21.7641 6.25 22.9773 7.24922 23.3266 8.59375H17.2984C17.6477 7.24922 18.8609 6.25 20.3125 6.25ZM9.375 6.25C10.8266 6.25 12.0398 7.24922 12.3891 8.59375H6.36094C6.71016 7.24922 7.92344 6.25 9.375 6.25ZM3.125 10.1562H12.3891C12.0398 11.5008 10.8266 12.5 9.375 12.5C8.94375 12.5 8.59375 12.8492 8.59375 13.2812C8.59375 13.7133 8.94375 14.0625 9.375 14.0625C11.693 14.0625 13.618 12.3695 13.9922 10.1562H23.3266C22.9773 11.5008 21.7641 12.5 20.3125 12.5C19.8813 12.5 19.5312 12.8492 19.5312 13.2812C19.5312 13.7133 19.8813 14.0625 20.3125 14.0625C22.6305 14.0625 24.5555 12.3695 24.9297 10.1562H34.2648C33.9156 11.5008 32.7023 12.5 31.2508 12.5C30.8188 12.5 30.4695 12.8492 30.4695 13.2812C30.4695 13.7133 30.8188 14.0625 31.2508 14.0625C33.5687 14.0625 35.4953 12.3695 35.868 10.1562H37.5V15.625H3.125V10.1562ZM3.125 42.1875V17.1875H37.5V25.0414C36.307 25.1313 35.1477 25.4164 34.0469 25.9164C32.4484 26.6562 31.0602 27.8023 30.0289 29.2305C28.7844 30.9602 28.125 33.0086 28.125 35.1562C28.125 37.3039 28.7844 39.3523 30.0297 41.082C30.3125 41.4742 30.6289 41.8414 30.9617 42.1875H3.125ZM38.2812 43.75C37.0344 43.75 35.8289 43.4898 34.7031 42.9789C33.3484 42.3508 32.1719 41.3789 31.2992 40.168C30.2445 38.707 29.6875 36.9734 29.6875 35.1562C29.6875 33.3391 30.2445 31.6055 31.2992 30.1445C32.1719 28.9336 33.3484 27.9617 34.6992 27.3359C35.8289 26.8227 37.0344 26.5625 38.2812 26.5625C43.0187 26.5625 46.875 30.4188 46.875 35.1562C46.875 39.8937 43.0187 43.75 38.2812 43.75Z" fill="#006699"/>
<path d="M43.2156 35.9781L40.6203 35.1141C40.6023 34.1164 39.9562 33.275 39.0625 32.9578V28.9062C39.0625 28.4742 38.7133 28.125 38.2812 28.125C37.8492 28.125 37.5 28.4742 37.5 28.9062V32.9578C36.593 33.2813 35.9375 34.1398 35.9375 35.1562C35.9375 36.4484 36.9891 37.5 38.2812 37.5C39.0305 37.5 39.6914 37.1406 40.1203 36.5922L42.7219 37.4594C42.8039 37.4859 42.8875 37.5 42.9688 37.5C43.2961 37.5 43.6008 37.2922 43.7094 36.9656C43.8461 36.5563 43.625 36.1148 43.2156 35.9781ZM10.9375 18.75H6.25C5.81875 18.75 5.46875 19.0992 5.46875 19.5312V24.2188C5.46875 24.6508 5.81875 25 6.25 25H10.9375C11.3688 25 11.7188 24.6508 11.7188 24.2188V19.5312C11.7188 19.0992 11.3688 18.75 10.9375 18.75ZM18.75 18.75H14.0625C13.6313 18.75 13.2812 19.0992 13.2812 19.5312V24.2188C13.2812 24.6508 13.6313 25 14.0625 25H18.75C19.1812 25 19.5312 24.6508 19.5312 24.2188V19.5312C19.5312 19.0992 19.1812 18.75 18.75 18.75ZM26.5625 18.75H21.875C21.4438 18.75 21.0938 19.0992 21.0938 19.5312V24.2188C21.0938 24.6508 21.4438 25 21.875 25H26.5625C26.9945 25 27.3438 24.6508 27.3438 24.2188V19.5312C27.3438 19.0992 26.9945 18.75 26.5625 18.75ZM29.6875 25H34.375C34.807 25 35.1562 24.6508 35.1562 24.2188V19.5312C35.1562 19.0992 34.807 18.75 34.375 18.75H29.6875C29.2555 18.75 28.9062 19.0992 28.9062 19.5312V24.2188C28.9062 24.6508 29.2555 25 29.6875 25ZM10.9375 26.5625H6.25C5.81875 26.5625 5.46875 26.9117 5.46875 27.3438V32.0312C5.46875 32.4633 5.81875 32.8125 6.25 32.8125H10.9375C11.3688 32.8125 11.7188 32.4633 11.7188 32.0312V27.3438C11.7188 26.9117 11.3688 26.5625 10.9375 26.5625ZM18.75 26.5625H14.0625C13.6313 26.5625 13.2812 26.9117 13.2812 27.3438V32.0312C13.2812 32.4633 13.6313 32.8125 14.0625 32.8125H18.75C19.1812 32.8125 19.5312 32.4633 19.5312 32.0312V27.3438C19.5312 26.9117 19.1812 26.5625 18.75 26.5625ZM26.5625 26.5625H21.875C21.4438 26.5625 21.0938 26.9117 21.0938 27.3438V32.0312C21.0938 32.4633 21.4438 32.8125 21.875 32.8125H26.5625C26.9945 32.8125 27.3438 32.4633 27.3438 32.0312V27.3438C27.3438 26.9117 26.9945 26.5625 26.5625 26.5625ZM10.9375 34.375H6.25C5.81875 34.375 5.46875 34.7242 5.46875 35.1562V39.8438C5.46875 40.2758 5.81875 40.625 6.25 40.625H10.9375C11.3688 40.625 11.7188 40.2758 11.7188 39.8438V35.1562C11.7188 34.7242 11.3688 34.375 10.9375 34.375ZM18.75 34.375H14.0625C13.6313 34.375 13.2812 34.7242 13.2812 35.1562V39.8438C13.2812 40.2758 13.6313 40.625 14.0625 40.625H18.75C19.1812 40.625 19.5312 40.2758 19.5312 39.8438V35.1562C19.5312 34.7242 19.1812 34.375 18.75 34.375ZM26.5625 34.375H21.875C21.4438 34.375 21.0938 34.7242 21.0938 35.1562V39.8438C21.0938 40.2758 21.4438 40.625 21.875 40.625H26.5625C26.9945 40.625 27.3438 40.2758 27.3438 39.8438V35.1562C27.3438 34.7242 26.9945 34.375 26.5625 34.375Z" fill="#006699"/>
</svg>
