<svg width="53" height="51" viewBox="0 0 53 51" fill="none" xmlns="http://www.w3.org/2000/svg">
<path d="M9.57904 41.5782H14.1222C14.4033 41.5782 14.6729 41.4708 14.8717 41.2795C15.0705 41.0882 15.1822 40.8288 15.1822 40.5582V33.098C15.1822 32.8274 15.0705 32.568 14.8717 32.3767C14.6729 32.1854 14.4033 32.078 14.1222 32.078H9.57904C9.29791 32.078 9.0283 32.1854 8.82951 32.3767C8.63072 32.568 8.51904 32.8274 8.51904 33.098V40.5582C8.51904 40.8288 8.63072 41.0882 8.82951 41.2795C9.0283 41.4708 9.29791 41.5782 9.57904 41.5782ZM10.639 34.1169H13.0622V39.5372H10.639V34.1169ZM23.2075 41.5782C23.4886 41.5782 23.7582 41.4708 23.957 41.2795C24.1558 41.0882 24.2675 40.8288 24.2675 40.5582V19.5054C24.2675 19.2349 24.1558 18.9755 23.957 18.7842C23.7582 18.5929 23.4886 18.4854 23.2075 18.4854H18.6643C18.3832 18.4854 18.1136 18.5929 17.9148 18.7842C17.716 18.9755 17.6043 19.2349 17.6043 19.5054V40.5582C17.6043 40.8288 17.716 41.0882 17.9148 41.2795C18.1136 41.4708 18.3832 41.5782 18.6643 41.5782H23.2075ZM19.7243 20.5254H22.1475V39.5382H19.7243V20.5254ZM32.2927 41.5782C32.5739 41.5782 32.8435 41.4708 33.0423 41.2795C33.241 41.0882 33.3527 40.8288 33.3527 40.5582V26.4792C33.3527 26.2087 33.241 25.9492 33.0423 25.7579C32.8435 25.5666 32.5739 25.4592 32.2927 25.4592H27.7506C27.4695 25.4592 27.1999 25.5666 27.0011 25.7579C26.8023 25.9492 26.6906 26.2087 26.6906 26.4792V40.5582C26.6906 40.8288 26.8023 41.0882 27.0011 41.2795C27.1999 41.4708 27.4695 41.5782 27.7506 41.5782H32.2927ZM28.8106 27.4992H31.2338V39.5382H28.8106V27.4992ZM35.7759 9.95823V40.5582C35.7759 40.8288 35.8876 41.0882 36.0863 41.2795C36.2851 41.4708 36.5548 41.5782 36.8359 41.5782H41.379C41.6602 41.5782 41.9298 41.4708 42.1286 41.2795C42.3274 41.0882 42.439 40.8288 42.439 40.5582V9.95823C42.439 9.68771 42.3274 9.42827 42.1286 9.23698C41.9298 9.0457 41.6602 8.93823 41.379 8.93823H36.8359C36.5548 8.93823 36.2851 9.0457 36.0863 9.23698C35.8876 9.42827 35.7759 9.68771 35.7759 9.95823ZM37.8959 10.9782H40.319V39.5382H37.8959V10.9782Z" fill="#0099CC"/>
</svg>
