<svg width="30" height="30" viewBox="0 0 30 30" fill="none" xmlns="http://www.w3.org/2000/svg">
<g clip-path="url(#clip0_14_255)">
<path d="M26.5818 1.26939C26.6348 1.21618 26.6742 1.15101 26.6967 1.07938C26.7193 1.00775 26.7243 0.931751 26.7113 0.857782C26.6984 0.783813 26.6678 0.71404 26.6223 0.654335C26.5767 0.594631 26.5175 0.546744 26.4496 0.514706C25.402 0.0199881 24.227 -0.138277 23.0858 0.0616482C21.9447 0.261573 20.8935 0.809881 20.0765 1.63127C18.4846 3.23346 17.9287 5.74971 18.6712 7.85346L7.85334 18.6713C7.25236 18.4594 6.61932 18.3528 5.98209 18.3563C4.37522 18.3563 2.81709 18.9956 1.70803 20.1113C0.893921 20.9219 0.343668 21.9595 0.129372 23.0882C-0.0849234 24.2169 0.0467339 25.384 0.507093 26.4366C0.537268 26.507 0.584329 26.569 0.64412 26.617C0.703912 26.6649 0.774594 26.6974 0.849925 26.7116C0.925256 26.7258 1.00292 26.7212 1.07606 26.6982C1.14919 26.6753 1.21555 26.6347 1.26928 26.58L4.54209 23.2903C4.75772 23.0728 5.10553 23.0438 5.28553 23.2266L6.69834 24.705C6.90366 24.9122 6.89428 25.2319 6.67772 25.4503L3.41709 28.7316C3.3641 28.7847 3.32467 28.8498 3.30211 28.9214C3.27956 28.9929 3.27456 29.0689 3.28752 29.1428C3.30048 29.2167 3.33103 29.2864 3.37659 29.346C3.42214 29.4056 3.48137 29.4534 3.54928 29.4853C4.30795 29.8473 5.13776 30.0356 5.97834 30.0366C7.45209 30.0366 8.85178 29.4441 9.92241 28.3678C11.5143 26.7666 12.0702 24.2503 11.3268 22.1466L22.1446 11.3278C22.7459 11.5396 23.3793 11.6462 24.0168 11.6428C25.6237 11.6428 27.1818 11.0035 28.2908 9.88783C29.105 9.07722 29.6552 8.03959 29.8695 6.9109C30.0838 5.78221 29.9521 4.6151 29.4918 3.56252C29.4616 3.49205 29.4145 3.4301 29.3548 3.38214C29.295 3.33417 29.2243 3.30166 29.1489 3.28749C29.0736 3.27331 28.996 3.2779 28.9228 3.30085C28.8497 3.3238 28.7833 3.36441 28.7296 3.41908L25.4568 6.70877C25.3557 6.80652 25.22 6.86037 25.0794 6.85862C24.9387 6.85686 24.8045 6.79964 24.7058 6.69939L23.3005 5.29408C23.2504 5.24595 23.2105 5.1882 23.1832 5.12428C23.1559 5.06036 23.1418 4.99159 23.1417 4.92209C23.1416 4.85259 23.1556 4.78379 23.1827 4.7198C23.2098 4.65582 23.2496 4.59796 23.2996 4.54971L26.5818 1.26939ZM22.6368 5.95689L24.0421 7.36221C24.6037 7.92658 25.5655 7.92939 26.1215 7.37064L28.8683 4.61064C29.0859 5.42157 29.0857 6.27554 28.8678 7.08637C28.6499 7.8972 28.2219 8.6362 27.6271 9.22877C26.6924 10.1691 25.378 10.7072 24.0177 10.7072C23.3774 10.7072 22.7708 10.5872 22.2149 10.351C22.129 10.3144 22.0341 10.3043 21.9424 10.322C21.8507 10.3397 21.7663 10.3844 21.7002 10.4503L10.4502 21.7003C10.3844 21.7661 10.3397 21.8501 10.3218 21.9414C10.3039 22.0328 10.3137 22.1274 10.3499 22.2131C11.1027 24.0038 10.6443 26.3147 9.25959 27.7078C8.66296 28.313 7.91177 28.743 7.08777 28.9509C6.26376 29.1589 5.39851 29.1368 4.58616 28.8872L7.34334 26.1122C7.92553 25.5263 7.93491 24.6178 7.37053 24.0516L5.95866 22.5731C5.41397 22.0247 4.44553 22.0585 3.87928 22.6313L1.13241 25.3913C0.914822 24.5803 0.915006 23.7264 1.13294 22.9155C1.35087 22.1047 1.77884 21.3657 2.37366 20.7731C3.30834 19.8328 4.62272 19.2947 5.98303 19.2947C6.62334 19.2947 7.22991 19.4147 7.78584 19.651C7.87173 19.6878 7.96669 19.698 8.05845 19.6803C8.15021 19.6626 8.23454 19.6178 8.30053 19.5516L19.5505 8.30158C19.6164 8.23578 19.6611 8.15184 19.679 8.06049C19.6968 7.96913 19.687 7.87453 19.6508 7.78877C18.898 5.99814 19.3565 3.68627 20.7412 2.29314C21.3376 1.68855 22.0883 1.25895 22.9117 1.05103C23.7352 0.843108 24.5998 0.864806 25.4118 1.11377L22.6368 3.88971C22.4996 4.0246 22.3906 4.18547 22.3162 4.36293C22.2418 4.54038 22.2035 4.73088 22.2035 4.9233C22.2035 5.11572 22.2418 5.30622 22.3162 5.48368C22.3906 5.66113 22.4996 5.822 22.6368 5.95689Z" fill="#0099CC"/>
<path d="M27.3843 28.7316C27.28 28.8318 27.1409 28.8877 26.9963 28.8873C26.8516 28.887 26.7127 28.8305 26.609 28.7297L17.2059 19.3547C17.1163 19.2746 16.9993 19.2318 16.8792 19.2353C16.759 19.2388 16.6448 19.2882 16.5599 19.3734C16.4751 19.4586 16.4262 19.573 16.4232 19.6932C16.4203 19.8134 16.4635 19.9301 16.544 20.0194L25.9462 29.3925C26.2274 29.6747 26.6005 29.8303 26.998 29.8303C27.3955 29.8303 27.7687 29.6747 28.0555 29.3859L29.3952 27.9863C29.5322 27.8511 29.6409 27.69 29.7151 27.5125C29.7893 27.3349 29.8274 27.1444 29.8274 26.952C29.8273 26.7596 29.7889 26.5691 29.7146 26.3916C29.6403 26.2141 29.5314 26.0532 29.3943 25.9181L20.0193 16.5431C19.9309 16.4577 19.8125 16.4105 19.6896 16.4116C19.5667 16.4126 19.4491 16.4619 19.3622 16.5488C19.2753 16.6357 19.226 16.7533 19.2249 16.8762C19.2238 16.9991 19.2711 17.1175 19.3565 17.2059L28.7305 26.58C28.9452 26.7956 28.9452 27.1088 28.724 27.3319L27.3843 28.7316ZM5.48804 2.94938L2.67554 0.136877C2.58764 0.0490004 2.46843 -0.000366211 2.34414 -0.000366211C2.21984 -0.000366211 2.10064 0.0490004 2.01273 0.136877L0.137732 2.01188C0.0498549 2.09978 0.000488281 2.21899 0.000488281 2.34328C0.000488281 2.46758 0.0498549 2.58679 0.137732 2.67469L2.95023 5.48719C3.03825 5.57474 3.1573 5.62396 3.28145 5.62413C3.40559 5.62431 3.52478 5.57542 3.61304 5.48813L4.21867 4.88157L11.3868 12.0497C11.43 12.0945 11.4816 12.1303 11.5388 12.1549C11.596 12.1796 11.6574 12.1926 11.7197 12.1932C11.7819 12.1939 11.8437 12.1821 11.9013 12.1586C11.9589 12.1351 12.0113 12.1004 12.0554 12.0564C12.0995 12.0125 12.1343 11.9602 12.158 11.9026C12.1816 11.845 12.1936 11.7833 12.1931 11.7211C12.1927 11.6589 12.1798 11.5973 12.1554 11.5401C12.1309 11.4829 12.0953 11.4311 12.0505 11.3878L4.88148 4.21875L5.48711 3.61313C5.53082 3.56965 5.56553 3.51797 5.58924 3.46105C5.61295 3.40414 5.6252 3.3431 5.62529 3.28145C5.62538 3.21979 5.6133 3.15872 5.58975 3.10174C5.5662 3.04476 5.53164 2.99298 5.48804 2.94938ZM3.28117 4.49344L1.13148 2.34375L2.34367 1.13156L4.49336 3.28125L3.28117 4.49344Z" fill="#0099CC"/>
</g>
<defs>
<clipPath id="clip0_14_255">
<rect width="30" height="30" fill="white"/>
</clipPath>
</defs>
</svg>
