<svg width="35" height="35" viewBox="0 0 35 35" fill="none" xmlns="http://www.w3.org/2000/svg">
<path d="M17.4999 15.3125C18.5815 15.3125 19.6389 14.9918 20.5382 14.3908C21.4375 13.7899 22.1385 12.9358 22.5524 11.9365C22.9663 10.9373 23.0746 9.83768 22.8636 8.77685C22.6526 7.71602 22.1317 6.74158 21.3669 5.97676C20.6021 5.21194 19.6277 4.69109 18.5668 4.48008C17.506 4.26907 16.4064 4.37737 15.4071 4.79128C14.4078 5.2052 13.5537 5.90614 12.9528 6.80547C12.3519 7.70481 12.0312 8.76213 12.0312 9.84375C12.0312 11.2942 12.6073 12.6851 13.6329 13.7107C14.6585 14.7363 16.0495 15.3125 17.4999 15.3125ZM17.4999 6.5625C18.1489 6.5625 18.7833 6.75494 19.3229 7.11549C19.8625 7.47604 20.283 7.9885 20.5314 8.58807C20.7797 9.18764 20.8447 9.84739 20.7181 10.4839C20.5915 11.1204 20.279 11.7051 19.8201 12.1639C19.3612 12.6228 18.7766 12.9353 18.1401 13.062C17.5036 13.1886 16.8438 13.1236 16.2442 12.8752C15.6447 12.6269 15.1322 12.2063 14.7717 11.6667C14.4111 11.1271 14.2187 10.4927 14.2187 9.84375C14.2187 8.97351 14.5644 8.13891 15.1797 7.52355C15.7951 6.9082 16.6297 6.5625 17.4999 6.5625ZM21.2405 16.4062H13.7593C11.7903 16.4691 9.92668 17.3106 8.57742 18.7459C7.22815 20.1813 6.50347 22.0934 6.56242 24.0625V29.5312C6.56242 29.8213 6.67765 30.0995 6.88277 30.3046C7.08789 30.5098 7.36609 30.625 7.65617 30.625H27.3437C27.6337 30.625 27.9119 30.5098 28.1171 30.3046C28.3222 30.0995 28.4374 29.8213 28.4374 29.5312V24.0625C28.4964 22.0934 27.7717 20.1813 26.4224 18.7459C25.0731 17.3106 23.2095 16.4691 21.2405 16.4062ZM26.2499 28.4375H8.74992V24.0625C8.69058 22.6734 9.18467 21.3175 10.1238 20.2923C11.0629 19.2671 12.3704 18.6562 13.7593 18.5937H21.2405C22.6295 18.6562 23.9369 19.2671 24.876 20.2923C25.8152 21.3175 26.3092 22.6734 26.2499 24.0625V28.4375Z" fill="#0099CC"/>
</svg>
