<svg width="43" height="43" viewBox="0 0 43 43" fill="none" xmlns="http://www.w3.org/2000/svg">
<path d="M21.5 0.9375C17.4331 0.9375 13.4576 2.14347 10.0761 4.40291C6.69461 6.66234 4.05906 9.87377 2.50274 13.6311C0.946409 17.3884 0.539203 21.5228 1.33261 25.5115C2.12602 29.5003 4.08441 33.1642 6.96013 36.0399C9.83584 38.9156 13.4997 40.874 17.4885 41.6674C21.4772 42.4608 25.6116 42.0536 29.3689 40.4973C33.1262 38.9409 36.3377 36.3054 38.5971 32.9239C40.8565 29.5424 42.0625 25.5669 42.0625 21.5C42.0625 16.0465 39.8961 10.8163 36.0399 6.96012C32.1837 3.1039 26.9535 0.9375 21.5 0.9375ZM21.5 39.125C18.0141 39.125 14.6065 38.0913 11.7081 36.1547C8.80967 34.218 6.55063 31.4653 5.21663 28.2448C3.88264 25.0242 3.5336 21.4804 4.21367 18.0615C4.89373 14.6426 6.57235 11.5021 9.03725 9.03724C11.5022 6.57234 14.6426 4.89372 18.0615 4.21366C21.4805 3.53359 25.0243 3.88263 28.2448 5.21662C31.4654 6.55062 34.218 8.80966 36.1547 11.7081C38.0913 14.6065 39.125 18.0141 39.125 21.5C39.125 26.1744 37.2681 30.6574 33.9628 33.9628C30.6574 37.2681 26.1745 39.125 21.5 39.125ZM21.5 15.7572L30.9147 25.1719L28.8438 27.2428L21.5 19.8991L14.1563 27.2428L12.0853 25.1719L21.5 15.7572Z" fill="#0099CC"/>
</svg>
